<svg height="512" viewBox="0 0 64 64" width="512" xmlns="http://www.w3.org/2000/svg"><path d="m49.39 42.06c5.48.28 9.61 1.48 9.61 2.94 0 1.66-5.37 3-12 3s-12-1.34-12-3c0-1.47 4.19-2.68 9.73-2.94 1.36 1.83 2.27 2.94 2.27 2.94s.96-1.1 2.39-2.94z" fill="#ffeb99"/><path d="m61 17c0 8.85-7.62 19.88-11.61 25.06-1.43 1.84-2.39 2.94-2.39 2.94s-.91-1.11-2.27-2.94c-3.96-5.34-11.73-16.87-11.73-25.06a14 14 0 0 1 28 0z" fill="#57a4ff"/><g fill="#ff7956"><path d="m19.67 45 1.33 8-4 4-4-4 1.33-8z"/><path d="m24 34-5 7h-4l-5-7 3-1 1 1 3 3 3-3 1-1z"/><path d="m19 41 .67 4h-5.34l.67-4z"/><circle cx="47" cy="17" r="7"/></g><path d="m31 53v6a2.006 2.006 0 0 1 -2 2h-4v-8z" fill="#ffdaaa"/><path d="m14.33 45-1.33 8 4 4 4-4-1.33-8-.67-4 5-7a8.012 8.012 0 0 1 7 8v11h-6v8h-16v-8h-6v-11a8.012 8.012 0 0 1 7-8l5 7z" fill="#57a4ff"/><path d="m27 21v2a2.006 2.006 0 0 1 -2 2h-2v-6h2a2.006 2.006 0 0 1 2 2z" fill="#ffc477"/><path d="m25 13v6h-2v-1l-3-1-3 2v-3l-3 3v-2l-3 1v1h-2v-6a4 4 0 0 1 4-4h8a4 4 0 0 1 4 4z" fill="#c0ab91"/><path d="m23 23v1a5.94 5.94 0 0 1 -.34 1.99 6.024 6.024 0 0 1 -5.66 4.01 5.815 5.815 0 0 1 -1.87-.3 6.023 6.023 0 0 1 -3.79-3.71 5.94 5.94 0 0 1 -.34-1.99v-6l3-1v2l3-3v3l3-2 3 1z" fill="#ffdaaa"/><path d="m19 30 1 4-3 3-3-3 1-4 .13-.3a5.815 5.815 0 0 0 1.87.3 5.943 5.943 0 0 0 1.89-.31z" fill="#ffdaaa"/><path d="m11 24v1h-2a2.006 2.006 0 0 1 -2-2v-2a2.006 2.006 0 0 1 2-2h2z" fill="#ffc477"/><path d="m9 53v8h-4a2.006 2.006 0 0 1 -2-2v-6z" fill="#ffdaaa"/><path d="m24.249 33.029-2.933-.978a1 1 0 0 0 -.758.058l-.46-1.837a7.01 7.01 0 0 0 3.506-3.95c.037-.105.051-.216.083-.322h1.313a3 3 0 0 0 3-3v-2a3 3 0 0 0 -2-2.816v-5.184a5.006 5.006 0 0 0 -5-5h-8a5.006 5.006 0 0 0 -5 5v5.184a3 3 0 0 0 -2 2.816v2a3 3 0 0 0 3 3h1.313c.032.106.046.217.083.322a7.01 7.01 0 0 0 3.506 3.95l-.46 1.837a.991.991 0 0 0 -.758-.058l-2.933.978a9 9 0 0 0 -7.751 8.971v17a3 3 0 0 0 3 3h24a3 3 0 0 0 3-3v-17a9 9 0 0 0 -7.751-8.971zm1.751-10.029a1 1 0 0 1 -1 1h-1v-4h1a1 1 0 0 1 1 1zm-16-10a3 3 0 0 1 3-3h8a3 3 0 0 1 3 3v5a1 1 0 0 0 -.684-.949l-3-1a1.013 1.013 0 0 0 -.871.117l-1.445.963v-1.131a1 1 0 0 0 -1.707-.707l-1.356 1.356a1 1 0 0 0 -1.253-.6l-3 1a1 1 0 0 0 -.684.951zm-1 11a1 1 0 0 1 -1-1v-2a1 1 0 0 1 1-1h1v4zm3.282 1.656a4.955 4.955 0 0 1 -.282-1.656v-5.279l1-.334v.613a1 1 0 0 0 1.707.707l1.293-1.293v.586a1 1 0 0 0 1.555.832l2.592-1.732 1.853.621v5.279a4.955 4.955 0 0 1 -.282 1.656 5 5 0 0 1 -9.435 0zm4.718 5.344a6.926 6.926 0 0 0 1.192-.11l.7 2.8-1.892 1.896-1.893-1.893.7-2.8a6.926 6.926 0 0 0 1.193.107zm-4.271 3.144 3.564 3.563a1 1 0 0 0 1.414 0l3.564-3.563 1.128.377-3.913 5.479h-2.972l-3.914-5.479zm7.2 18.513-2.929 2.929-2.929-2.929 1.109-6.657h3.64zm-4.082-10.657h2.306l.334 2h-2.974zm-11.847 17v-5h4v6h-3a1 1 0 0 1 -1-1zm25 1h-3v-6h4v5a1 1 0 0 1 -1 1zm1-8h-5a1 1 0 0 0 -1 1v7h-14v-7a1 1 0 0 0 -1-1h-5v-10a7.018 7.018 0 0 1 5.549-6.912l4.4 6.156-1.935 11.591a1 1 0 0 0 .279.872l4 4a1 1 0 0 0 1.414 0l4-4a1 1 0 0 0 .279-.872l-1.932-11.591 4.4-6.156a7.018 7.018 0 0 1 5.546 6.912z"/><path d="m20 24h-2a1 1 0 0 1 -2 0h-2a3 3 0 0 0 6 0z"/><path d="m55 17a8 8 0 1 0 -8 8 8.009 8.009 0 0 0 8-8zm-8 6a6 6 0 1 1 6-6 6.006 6.006 0 0 1 -6 6z"/><path d="m51.3 41.2c4.229-5.694 10.7-15.781 10.7-24.2a15 15 0 0 0 -30 0c0 7.831 6.633 18.316 10.847 24.188-3.362.303-8.847 1.199-8.847 3.812 0 3.158 8.172 4 13 4s13-.842 13-4c0-2.564-5.149-3.477-8.7-3.8zm-4.3-37.2a13.015 13.015 0 0 1 13 13c0 9.878-10.075 22.877-12.979 26.418-2.876-3.69-13.021-17.35-13.021-26.418a13.015 13.015 0 0 1 13-13zm0 43c-6.472 0-10.411-1.247-10.969-2 .436-.57 3.117-1.61 8.212-1.91 1.1 1.467 1.858 2.391 1.986 2.546a1 1 0 0 0 .756.364h.015a1.006 1.006 0 0 0 .753-.341c.132-.151.94-1.083 2.1-2.568 5.031.316 7.68 1.347 8.112 1.909-.554.754-4.493 2-10.965 2z"/></svg>