<svg id="Layer_5" enable-background="new 0 0 64 64" height="512" viewBox="0 0 64 64" width="512" xmlns="http://www.w3.org/2000/svg"><path d="m11 46h49c1.105 0 2-.895 2-2v-34h-56v24h1.306c.978 0 1.812.707 1.973 1.671z" fill="#e6e9ed"/><g fill="#aab2bd"><path d="m9.3 35.64.43 2.36h-5.73c-.55 0-1.05-.22-1.41-.59-.37-.36-.59-.86-.59-1.41 0-1.1.9-2 2-2h2 1.33c.97 0 1.8.69 1.97 1.64z"/><circle cx="13" cy="59" r="3"/><circle cx="33" cy="59" r="3"/></g><path d="m10.09 40 2.18 12h16.39c1.46 0 2.76-.79 3.46-2 .23-.38.39-.82.48-1.28l1.22-6.72.18-1v-1z" fill="#fcd770"/><path d="m56 46-8 4v-8z" fill="#aab2bd"/><path d="m48 42v8h-15.88c.23-.38.39-.82.48-1.28l.49-2.72.73-4z" fill="#ff826e"/><path d="m36 32h22v6h-22z" fill="#4fc1e9"/><path d="m36 14h22v14h-22z" fill="#fcd770"/><path d="m32 14v14l-11-7z" fill="#dfb28b"/><path d="m21 21-11 7v-14z" fill="#dfb28b"/><path d="m32 28h-22l11-7z" fill="#d3a06c"/><path d="m32 14-11 7-11-7z" fill="#cf9e76"/><path d="m6 10v-6c0-1.1.9-2 2-2h52c1.1 0 2 .9 2 2v6z" fill="#b4dd7f"/><path d="m60 1h-52c-1.654 0-3 1.346-3 3v29h-1c-1.654 0-3 1.346-3 3s1.346 3 3 3h4.893l2.944 16.193c-1.636.502-2.837 2.009-2.837 3.807 0 2.206 1.794 4 4 4s4-1.794 4-4c0-.732-.212-1.409-.556-2h13.113c-.345.591-.557 1.268-.557 2 0 2.206 1.794 4 4 4s4-1.794 4-4-1.794-4-4-4h-19.166l-.364-2h15.191c1.614 0 3.061-.78 3.981-2h15.594l8-4h3.764c1.654 0 3-1.346 3-3v-40c0-1.654-1.346-3-3-3zm-52 2h52c.551 0 1 .449 1 1v5h-54v-5c0-.551.449-1 1-1zm-4 34c-.551 0-1-.449-1-1s.449-1 1-1h3.331c.483 0 .897.346.984.821l.214 1.179zm28.256 8h-3.256v-4h3.983zm-5.256 0h-4v-4h4zm0 6h-4v-4h4zm-6 0h-4v-4h4zm0-6h-4v-4h4zm-6 0h-2.983l-.727-4h3.71zm0 14c0 1.103-.897 2-2 2s-2-.897-2-2 .897-2 2-2 2 .897 2 2zm20 0c0 1.103-.897 2-2 2s-2-.897-2-2 .897-2 2-2 2 .897 2 2zm-22.62-12h2.62v4h-1.893zm16.62 3.97v-3.97h2.893l-.279 1.537c-.239 1.314-1.314 2.285-2.614 2.433zm5.653-7.97h12.347v6h-13.448c.007-.036.022-.069.029-.106zm14.347 5.382v-4.764l4.764 2.382zm11-3.382h-3.764l-8-4h-13.251l.015-2h-24.074l-.643-3.537c-.261-1.427-1.502-2.463-2.952-2.463h-.331v-22h54v33c0 .551-.449 1-1 1z"/><path d="m13 5h2v2h-2z"/><path d="m9 5h2v2h-2z"/><path d="m17 5h2v2h-2z"/><path d="m53 17h2v2h-2z"/><path d="m49 17h2v2h-2z"/><path d="m45 17h2v2h-2z"/><path d="m17 35h2v2h-2z"/><path d="m21 35h2v2h-2z"/><path d="m13 35h2v2h-2z"/><path d="m35 29h24v-16h-24zm2-14h20v12h-20z"/><path d="m59 31h-24v8h24zm-2 6h-20v-4h20z"/><path d="m9 29h24v-16h-24zm13.863-8 8.137-5.178v10.356zm5.703 6h-15.132l7.566-4.814zm-7.566-7.186-7.566-4.814h15.131zm-1.863 1.186-8.137 5.178v-10.356z"/></svg>