<svg id="Layer_1" enable-background="new 0 0 512.005 512.005" height="512" viewBox="0 0 512.005 512.005" width="512" xmlns="http://www.w3.org/2000/svg"><path d="m486.78 128.658c11.31 0 19.54 10.71 16.63 21.63-15.957 59.934-10.294 38.667-39.79 149.42-1.73 6.52-7.11 11.42-13.76 12.54-17.578 2.968-185.681 31.342-234.718 39.619-5.204.878-10.192-2.448-11.397-7.587-20.392-86.973-12.347-52.657-47.663-203.325-1.472-6.279 3.291-12.297 9.74-12.297z" fill="#e2f2ff"/><path d="m104.79 80.148c0 14.91-12.09 27-27 27h-42.79c-14.91 0-27-12.09-27-27v-4.08c0-14.91 12.09-27 27-27h42.79c14.91 0 27 12.09 27 27z" fill="#f97680"/><path d="m415.61 383.538c21.97 0 39.79 17.82 39.79 39.8 0 21.97-17.82 39.79-39.79 39.79-21.98 0-39.8-17.82-39.8-39.79 0-21.98 17.82-39.8 39.8-39.8z" fill="#53545f"/><path d="m247.83 383.538c21.98 0 39.79 17.82 39.79 39.8 0 21.97-17.81 39.79-39.79 39.79s-39.79-17.82-39.79-39.79c0-21.98 17.81-39.8 39.79-39.8z" fill="#53545f"/><path d="m455.4 423.338c0 21.97-17.82 39.79-39.79 39.79-16.16 0-30.08-9.64-36.32-23.48 33.437 14.973 67.532-19.466 52.62-52.62 13.85 6.22 23.49 20.14 23.49 36.31z" fill="#3e3f47"/><path d="m287.62 423.338c0 21.97-17.81 39.79-39.79 39.79-16.16 0-30.07-9.64-36.31-23.48 33.163 14.918 67.604-19.303 52.62-52.62 13.84 6.22 23.48 20.14 23.48 36.31z" fill="#3e3f47"/><path d="m503.41 150.288c-15.96 59.93-10.29 38.67-39.79 149.42-1.73 6.52-7.11 11.42-13.76 12.54-17.582 2.966-185.684 31.344-234.719 39.619-5.204.878-10.192-2.447-11.397-7.585-1.932-8.238-3.606-15.388-5.085-21.714 56.86-9.6 210.25-35.49 226.99-38.32 6.66-1.12 12.04-6.02 13.77-12.54 28.39-106.63 24.2-90.89 38.09-143.05h9.27c11.311 0 19.541 10.71 16.631 21.63z" fill="#cfebfc"/><path d="m104.79 76.068v4.08c0 14.91-12.09 27-27 27h-42.79c-13.61 0-24.87-10.08-26.73-23.18 4.86 4.7 11.45 7.57 18.73 7.57h42.79c15.55 0 29.887-13.15 26.73-34.9 5.1 4.9 8.27 11.79 8.27 19.43z" fill="#f2616a"/><circle cx="308" cy="134.098" fill="#fedf84" r="85.14"/><path d="m231.986 172.482c-28.411-56.109 12.23-123.296 75.645-123.516 6.773 59.463-25.999 106.022-75.645 123.516z" fill="#fee59b"/><path d="m393.14 134.098c0 56.135-53.422 96.792-107.327 82.213 53.922-20.949 90.325-70.013 90.391-133.188 10.636 14.21 16.936 31.858 16.936 50.975z" fill="#fed66b"/><g fill="#2c2c3d"><path d="m327.685 92.243v-7.837c0-4.418-3.582-8-8-8s-8 3.582-8 8v6.253h-9.655v-6.253c0-4.418-3.582-8-8-8s-8 3.582-8 8v6.253h-9.104c-4.418 0-8 3.582-8 8s3.582 8 8 8h3.402v57.165h-3.402c-4.418 0-8 3.582-8 8s3.582 8 8 8h9.104v6.253c0 4.418 3.582 8 8 8s8-3.582 8-8v-6.253h9.655v6.253c0 4.418 3.582 8 8 8s8-3.582 8-8v-7.837c17.846-6.548 23.004-29.51 9.344-42.999 13.683-13.511 8.465-36.464-9.344-42.998zm-31.357 14.416h22.406c5.544 0 10.054 4.51 10.054 10.054s-4.51 10.054-10.054 10.054h-22.406zm22.406 57.165h-22.406v-20.107h22.406c5.544 0 10.054 4.51 10.054 10.054s-4.51 10.053-10.054 10.053z"/><path d="m308 227.241c68.035 0 112.776-70.688 84.712-131.916-1.842-4.015-6.589-5.778-10.606-3.938-4.016 1.842-5.779 6.59-3.938 10.606 23.208 50.622-13.786 109.248-70.167 109.248-42.536 0-77.143-34.606-77.143-77.143 0-52.763 52.18-90.207 102.265-72.962 4.178 1.438 8.729-.783 10.169-4.96 1.438-4.178-.782-8.73-4.96-10.169-60.488-20.826-123.474 24.394-123.474 88.091-.001 51.359 41.783 93.143 93.142 93.143z"/><path d="m361.188 78.223c3.203 3.031 8.24 2.877 11.281-.338 2.885-3.049 3.07-8.082-.446-11.438-3.208-3.034-8.243-2.871-11.281.338-2.885 3.048-3.07 8.081.446 11.438z"/><path d="m486.783 120.654h-57.783c-5.267 0-8.282 3.704-8.479 7.597l-3.016 59.749h-9.505c-4.418 0-8 3.582-8 8s3.582 8 8 8h8.698l-2.372 47.003-60.313 3.284-.666-12.388c-.238-4.412-3.998-7.784-8.418-7.559-4.412.237-7.796 4.006-7.559 8.418l.667 12.398-66.793 3.636-3.633-19.796c-.796-4.346-4.96-7.224-9.313-6.424-4.346.797-7.222 4.967-6.424 9.313l3.264 17.784-62.214 3.387-13.841-59.057h28.417c4.418 0 8-3.582 8-8s-3.582-8-8-8h-32.168l-12.034-51.346h26.035c4.418 0 8-3.582 8-8s-3.582-8-8-8h-29.785l-2.056-8.771c-5.179-22.098-23.197-38.199-45.123-41.245-2.618-16.729-17.125-29.569-34.577-29.569h-42.792c-19.299 0-35 15.701-35 35v4.076c0 19.299 15.701 35 35 35h42.793c17.017 0 31.229-12.209 34.354-28.327 14.523 2.815 26.279 13.833 29.767 28.715.126.537 44.578 190.2 54.615 233.023l-29.245 11.698c-14.075 5.63-23.17 19.063-23.17 34.222 0 20.324 16.534 36.858 36.858 36.858h19.749c3.819 22.556 23.483 39.793 47.109 39.793 26.354 0 47.793-21.439 47.793-47.793 0-26.353-21.439-47.792-47.793-47.792-23.626 0-43.29 17.236-47.109 39.792h-19.749c-11.501 0-20.858-9.357-20.858-20.858 0-8.578 5.146-16.18 13.111-19.366l34.836-13.934 243.129-41.035c9.715-1.64 17.63-8.851 20.164-18.37l39.787-149.423c4.262-16-7.787-31.693-24.358-31.693zm-389.99-40.509c0 10.477-8.523 19-19 19h-42.793c-10.477 0-19-8.523-19-19v-4.076c0-10.477 8.523-19 19-19h42.793c10.477 0 19 8.523 19 19zm151.038 311.397c17.53 0 31.793 14.262 31.793 31.792s-14.263 31.793-31.793 31.793-31.792-14.263-31.792-31.793 14.262-31.792 31.792-31.792zm188.288-254.888h50.665c6.048 0 10.454 5.727 8.897 11.577l-10.589 39.769h-51.565zm-22.604 130.417-2.199 43.573-53.784 9.078-2.659-49.458zm-74.619 4.062 2.757 51.269-56.971 9.616-10.526-57.36zm-80.847 4.402 10.854 59.146-56.94 9.61-15.331-65.413zm197.845 22.12c-.926 3.477-3.816 6.11-7.365 6.709l-21.054 3.554 2.106-41.721 17.88-.974c4.412-.24 7.794-4.012 7.554-8.423-.24-4.412-4.015-7.785-8.423-7.554l-16.2.882 2.328-46.129h48.112z"/><path d="m415.605 375.542c-23.626 0-43.29 17.236-47.109 39.792h-49.862c-4.418 0-8 3.582-8 8s3.582 8 8 8h49.862c3.819 22.556 23.483 39.793 47.109 39.793 26.354 0 47.793-21.439 47.793-47.793 0-26.352-21.439-47.792-47.793-47.792zm0 79.585c-17.53 0-31.792-14.263-31.792-31.793s14.262-31.792 31.792-31.792 31.793 14.262 31.793 31.792-14.262 31.793-31.793 31.793z"/></g></svg>