<svg height="512" viewBox="0 0 60 59" width="512" xmlns="http://www.w3.org/2000/svg"><g id="066---Cart" fill="none"><path id="Shape" d="m46 8v-7c0-.55228475-.4477153-1-1-1h-10c-.5522847 0-1 .44771525-1 1v7c0 .55228475-.4477153 1-1 1h-2.24c-.4218892-.00082624-.798913.26321136-.9423708.65996197-.1434579.39675063-.0224853.84085463.3023708 1.11003803l9.24 7.7c.3707811.3088335.9092189.3088335 1.28 0l9.24-7.7c.3248561-.2691834.4458287-.7132874.3023708-1.11003803-.1434578-.39675061-.5204816-.66078821-.9423708-.65996197h-2.24c-.5522847 0-1-.44771525-1-1z" fill="#e64c3c"/><path id="Shape" d="m5 59h-4c-.55228475 0-1-.4477153-1-1s.44771525-1 1-1h4c.55228475 0 1 .4477153 1 1s-.44771525 1-1 1z" fill="#7f8c8d"/><path id="Shape" d="m59 59h-50c-.55228475 0-1-.4477153-1-1s.44771525-1 1-1h50c.5522847 0 1 .4477153 1 1s-.4477153 1-1 1z" fill="#7f8c8d"/><path id="Shape" d="m53 51h-31.17c-.9717285.0176728-1.8155018-.6657836-2-1.62l-4.34-22.76c-.1844982-.9542164-1.0282715-1.6376728-2-1.62h-2.49c-.5522847 0-1-.4477153-1-1s.4477153-1 1-1h2.52c1.9171805-.0013724 3.5657361 1.3577421 3.93 3.24l4.38 22.76h31.17c.5522847 0 1 .4477153 1 1s-.4477153 1-1 1z" fill="#95a5a5"/><circle id="Oval" cx="24" cy="54" fill="#464f5d" r="4"/><path id="Shape" d="m24 56c-.8125301.0047252-1.5471601-.4826076-1.8587419-1.233037s-.138178-1.6147821.4387419-2.186963c.1911533-.1808718.4151924-.3234422.66-.42.7447942-.3131935 1.6048786-.1474891 2.18.42.3654675.3832676.572633.890466.58 1.42.0067602.2623531-.0480373.5226412-.16.76-.1014583.2422786-.2434947.4654786-.42.66l-.3.24c-.11143.0757959-.2325053.1363336-.36.18-.1133131.0578033-.2346675.0982548-.36.12-.132289.0222616-.2659223.0356249-.4.04z" fill="#bdc3c7"/><circle id="Oval" cx="48" cy="54" fill="#464f5d" r="4"/><path id="Shape" d="m48 56c-.8125301.0047252-1.5471601-.4826076-1.8587419-1.233037s-.138178-1.6147821.4387419-2.186963c.1911533-.1808718.4151924-.3234422.66-.42.7447942-.3131935 1.6048786-.1474891 2.18.42.3654675.3832676.572633.890466.58 1.42.0067602.2623531-.0480373.5226412-.16.76-.1014583.2422786-.2434947.4654786-.42.66l-.3.24c-.11143.0757959-.2325053.1363336-.36.18-.1133131.0578033-.2346675.0982548-.36.12-.132289.0222616-.2659223.0356249-.4.04z" fill="#bdc3c7"/><path id="Shape" d="m54.32 46h-28.49c-.4796928.0106736-.8993583-.3208621-1-.79l-4.59-21c-.0643451-.2992002.0118598-.6113917.206822-.8472959.1949621-.2359042.4872135-.3695448.793178-.3627041h36.76c.2974817-.004336.5814469.1240116.7747474.3501732s.2758615.5266495.2252526.8198268l-3.67 21c-.0841856.4888905-.5140631.8421562-1.01.83z" fill="#95a5a5"/><path id="Shape" d="m53 46h-25.91c-.4506278-.0134396-.8282597-.3449164-.9-.79l-4.19-21c-.0617079-.2840921.0032692-.5809749.1780062-.8133176.1747371-.2323427.4419345-.3771425.7319938-.3966824h33.42c.279759.0238138.5366194.1641403.7078083.3866859.171189.2225456.2409344.5068067.1921917.7833141l-3.34 21c-.074799.4461164-.4397558.7864694-.89.83z" fill="#bdc3c7"/><g fill="#95a5a5"><path id="Shape" d="m45 29h-18c-.5522847 0-1-.4477153-1-1s.4477153-1 1-1h18c.5522847 0 1 .4477153 1 1s-.4477153 1-1 1z"/><path id="Shape" d="m54 29h-5c-.5522847 0-1-.4477153-1-1s.4477153-1 1-1h5c.5522847 0 1 .4477153 1 1s-.4477153 1-1 1z"/><path id="Shape" d="m38 33h-12c-.5522847 0-1-.4477153-1-1s.4477153-1 1-1h12c.5522847 0 1 .4477153 1 1s-.4477153 1-1 1z"/><path id="Shape" d="m52 33h-9c-.5522847 0-1-.4477153-1-1s.4477153-1 1-1h9c.5522847 0 1 .4477153 1 1s-.4477153 1-1 1z"/><path id="Shape" d="m35 37h-8c-.5522847 0-1-.4477153-1-1s.4477153-1 1-1h8c.5522847 0 1 .4477153 1 1s-.4477153 1-1 1z"/><path id="Shape" d="m51 37h-11c-.5522847 0-1-.4477153-1-1s.4477153-1 1-1h11c.5522847 0 1 .4477153 1 1s-.4477153 1-1 1z"/><path id="Shape" d="m40 41h-11c-.5522847 0-1-.4477153-1-1s.4477153-1 1-1h11c.5522847 0 1 .4477153 1 1s-.4477153 1-1 1z"/><path id="Shape" d="m50 41h-6c-.5522847 0-1-.4477153-1-1s.4477153-1 1-1h6c.5522847 0 1 .4477153 1 1s-.4477153 1-1 1z"/></g><path id="Shape" d="m11 22.5v3c0 .2761424-.2238576.5-.5.5h-6.5v-4h6.5c.2761424 0 .5.2238576.5.5z" fill="#2980ba"/><path id="Shape" d="m6 22v4h-3c-1.1045695 0-2-.8954305-2-2 .00223279-.5295768.21441221-1.0366497.59-1.41.37335029-.3755878.88042315-.5877672 1.41-.59z" fill="#3b97d3"/></g></svg>